<svg width="452" height="119" viewBox="0 0 452 119" fill="none" xmlns="http://www.w3.org/2000/svg">
<path d="M59.5 0C71.268 1.40332e-07 82.7717 3.48961 92.5564 10.0276C102.341 16.5655 109.967 25.8581 114.471 36.7303C118.974 47.6025 120.153 59.566 117.857 71.1079C115.561 82.6497 109.894 93.2516 101.573 101.573C93.2516 109.894 82.6497 115.561 71.1079 117.857C59.566 120.153 47.6025 118.974 36.7303 114.471C25.8581 109.967 16.5655 102.341 10.0276 92.5564C3.48961 82.7717 -2.80664e-07 71.268 0 59.5L5.355 59.5C5.355 70.2089 8.53055 80.6772 14.4801 89.5813C20.4296 98.4854 28.8859 105.425 38.7796 109.523C48.6733 113.622 59.5601 114.694 70.0632 112.605C80.5663 110.515 90.214 105.359 97.7863 97.7863C105.359 90.214 110.515 80.5663 112.605 70.0632C114.694 59.5601 113.622 48.6733 109.523 38.7796C105.425 28.8859 98.4855 20.4296 89.5814 14.4801C80.6773 8.53055 70.2089 5.355 59.5 5.355L59.5 0Z" fill="white"/>
<path d="M50.148 85.976C48.4253 83.3413 46.4747 80.732 44.296 78.148C42.168 75.564 39.9133 73.132 37.532 70.852C35.1507 68.572 32.7187 66.4947 30.236 64.62C27.804 62.7453 25.448 61.1747 23.168 59.908V85.976H18V33.308H23.168V57.856C25.0933 56.1333 27.2213 54.1573 29.552 51.928C31.9333 49.648 34.264 47.368 36.544 45.088C38.8747 42.808 41.0533 40.6293 43.08 38.552C45.1067 36.4747 46.728 34.7267 47.944 33.308H54.176C52.7067 34.8787 50.9333 36.7533 48.856 38.932C46.7787 41.06 44.5747 43.264 42.244 45.544C39.9133 47.824 37.5827 50.0787 35.252 52.308C32.972 54.4867 30.92 56.412 29.096 58.084C30.5653 58.996 32.136 60.136 33.808 61.504C35.5307 62.8213 37.2533 64.2907 38.976 65.912C40.7493 67.4827 42.472 69.1547 44.144 70.928C45.8667 72.6507 47.4627 74.3987 48.932 76.172C50.452 77.9453 51.7947 79.668 52.96 81.34C54.176 83.012 55.164 84.5573 55.924 85.976H50.148Z" fill="white"/>
<path d="M105.296 59.604C105.296 64.1133 104.587 68.04 103.168 71.384C101.749 74.728 99.7481 77.5147 97.1641 79.744C94.6308 81.9733 91.5908 83.6453 88.0441 84.76C84.4974 85.8747 80.5961 86.432 76.3401 86.432C74.2121 86.432 71.9828 86.3053 69.6521 86.052C67.3214 85.8493 65.2694 85.52 63.4961 85.064V34.296C65.2694 33.7893 67.3214 33.4347 69.6521 33.232C71.9828 32.9787 74.2121 32.852 76.3401 32.852C80.5961 32.852 84.4974 33.4093 88.0441 34.524C91.5908 35.6387 94.6308 37.3107 97.1641 39.54C99.7481 41.7693 101.749 44.556 103.168 47.9C104.587 51.244 105.296 55.1453 105.296 59.604ZM68.6641 81.416C68.9681 81.4667 69.7281 81.568 70.9441 81.72C72.2108 81.872 74.2121 81.948 76.9481 81.948C80.7481 81.948 84.0668 81.4413 86.9041 80.428C89.7414 79.364 92.1228 77.8693 94.0481 75.944C95.9734 74.0187 97.4174 71.688 98.3801 68.952C99.3428 66.1653 99.8241 63.0493 99.8241 59.604C99.8241 56.1587 99.3428 53.068 98.3801 50.332C97.4174 47.596 95.9734 45.2653 94.0481 43.34C92.1228 41.4147 89.7414 39.9453 86.9041 38.932C84.0668 37.868 80.7481 37.336 76.9481 37.336C74.2121 37.336 72.2108 37.412 70.9441 37.564C69.7281 37.716 68.9681 37.8173 68.6641 37.868V81.416Z" fill="white"/>
<path d="M142.037 45.924C143.658 45.924 145.178 46.0507 146.597 46.304C148.066 46.5573 149.08 46.8107 149.637 47.064L148.649 51.32C148.244 51.1173 147.408 50.9147 146.141 50.712C144.925 50.4587 143.304 50.332 141.277 50.332C139.149 50.332 137.426 50.484 136.109 50.788C134.842 51.092 134.006 51.3453 133.601 51.548V85.976H128.661V48.508C129.928 47.9507 131.676 47.3933 133.905 46.836C136.134 46.228 138.845 45.924 142.037 45.924Z" fill="white"/>
<path d="M169.475 82.404C171.4 82.404 173.072 82.3533 174.491 82.252C175.96 82.1 177.201 81.9227 178.215 81.72V67.888C177.657 67.6347 176.771 67.3813 175.555 67.128C174.339 66.824 172.667 66.672 170.539 66.672C169.323 66.672 168.056 66.7733 166.739 66.976C165.421 67.128 164.205 67.508 163.091 68.116C161.976 68.6733 161.064 69.4587 160.355 70.472C159.645 71.4853 159.291 72.828 159.291 74.5C159.291 75.9693 159.519 77.2107 159.975 78.224C160.481 79.2373 161.165 80.048 162.027 80.656C162.939 81.264 164.003 81.72 165.219 82.024C166.485 82.2773 167.904 82.404 169.475 82.404ZM169.019 45.772C171.603 45.772 173.781 46.152 175.555 46.912C177.379 47.6213 178.848 48.6347 179.963 49.952C181.077 51.2187 181.888 52.7387 182.395 54.512C182.901 56.2853 183.155 58.2107 183.155 60.288V85.064C182.648 85.216 181.913 85.3933 180.951 85.596C179.988 85.748 178.873 85.9253 177.607 86.128C176.34 86.3307 174.921 86.4827 173.351 86.584C171.831 86.736 170.26 86.812 168.639 86.812C166.561 86.812 164.636 86.584 162.863 86.128C161.14 85.672 159.62 84.9627 158.303 84C157.036 82.9867 156.023 81.72 155.263 80.2C154.553 78.6293 154.199 76.7293 154.199 74.5C154.199 72.372 154.604 70.548 155.415 69.028C156.225 67.508 157.365 66.2667 158.835 65.304C160.304 64.2907 162.052 63.556 164.079 63.1C166.105 62.644 168.309 62.416 170.691 62.416C171.4 62.416 172.135 62.4667 172.895 62.568C173.705 62.6187 174.465 62.72 175.175 62.872C175.935 62.9733 176.568 63.1 177.075 63.252C177.632 63.3533 178.012 63.4547 178.215 63.556V61.124C178.215 59.756 178.113 58.4387 177.911 57.172C177.708 55.8547 177.252 54.6893 176.543 53.676C175.884 52.612 174.921 51.776 173.655 51.168C172.439 50.5093 170.817 50.18 168.791 50.18C165.903 50.18 163.749 50.3827 162.331 50.788C160.912 51.1933 159.873 51.5227 159.215 51.776L158.531 47.444C159.392 47.0387 160.709 46.6587 162.483 46.304C164.307 45.9493 166.485 45.772 169.019 45.772Z" fill="white"/>
<path d="M195.755 48.052C197.224 47.6467 199.124 47.1907 201.455 46.684C203.836 46.1773 206.901 45.924 210.651 45.924C215.616 45.924 219.213 47.368 221.443 50.256C221.696 50.0533 222.177 49.724 222.887 49.268C223.647 48.7613 224.584 48.2547 225.699 47.748C226.813 47.2413 228.105 46.8107 229.575 46.456C231.095 46.1013 232.767 45.924 234.591 45.924C237.58 45.924 239.987 46.38 241.811 47.292C243.685 48.1533 245.129 49.3947 246.143 51.016C247.156 52.5867 247.84 54.4867 248.195 56.716C248.549 58.9453 248.727 61.3773 248.727 64.012V85.976H243.787V65.608C243.787 63.024 243.66 60.7947 243.407 58.92C243.204 56.9947 242.748 55.424 242.039 54.208C241.38 52.9413 240.417 52.004 239.151 51.396C237.884 50.7373 236.237 50.408 234.211 50.408C232.691 50.408 231.297 50.56 230.031 50.864C228.815 51.1173 227.751 51.4467 226.839 51.852C225.927 52.2573 225.167 52.6627 224.559 53.068C224.001 53.4733 223.596 53.7773 223.343 53.98C223.799 55.2973 224.128 56.792 224.331 58.464C224.584 60.0853 224.711 61.808 224.711 63.632V85.976H219.771V65.608C219.771 63.024 219.644 60.7947 219.391 58.92C219.188 56.9947 218.732 55.424 218.023 54.208C217.313 52.9413 216.3 52.004 214.983 51.396C213.716 50.7373 212.019 50.408 209.891 50.408C207.509 50.408 205.483 50.5347 203.811 50.788C202.189 51.0413 201.151 51.2693 200.695 51.472V85.976H195.755V48.052Z" fill="white"/>
<path d="M273.752 82.404C275.677 82.404 277.349 82.3533 278.768 82.252C280.237 82.1 281.479 81.9227 282.492 81.72V67.888C281.935 67.6347 281.048 67.3813 279.832 67.128C278.616 66.824 276.944 66.672 274.816 66.672C273.6 66.672 272.333 66.7733 271.016 66.976C269.699 67.128 268.483 67.508 267.368 68.116C266.253 68.6733 265.341 69.4587 264.632 70.472C263.923 71.4853 263.568 72.828 263.568 74.5C263.568 75.9693 263.796 77.2107 264.252 78.224C264.759 79.2373 265.443 80.048 266.304 80.656C267.216 81.264 268.28 81.72 269.496 82.024C270.763 82.2773 272.181 82.404 273.752 82.404ZM273.296 45.772C275.88 45.772 278.059 46.152 279.832 46.912C281.656 47.6213 283.125 48.6347 284.24 49.952C285.355 51.2187 286.165 52.7387 286.672 54.512C287.179 56.2853 287.432 58.2107 287.432 60.288V85.064C286.925 85.216 286.191 85.3933 285.228 85.596C284.265 85.748 283.151 85.9253 281.884 86.128C280.617 86.3307 279.199 86.4827 277.628 86.584C276.108 86.736 274.537 86.812 272.916 86.812C270.839 86.812 268.913 86.584 267.14 86.128C265.417 85.672 263.897 84.9627 262.58 84C261.313 82.9867 260.3 81.72 259.54 80.2C258.831 78.6293 258.476 76.7293 258.476 74.5C258.476 72.372 258.881 70.548 259.692 69.028C260.503 67.508 261.643 66.2667 263.112 65.304C264.581 64.2907 266.329 63.556 268.356 63.1C270.383 62.644 272.587 62.416 274.968 62.416C275.677 62.416 276.412 62.4667 277.172 62.568C277.983 62.6187 278.743 62.72 279.452 62.872C280.212 62.9733 280.845 63.1 281.352 63.252C281.909 63.3533 282.289 63.4547 282.492 63.556V61.124C282.492 59.756 282.391 58.4387 282.188 57.172C281.985 55.8547 281.529 54.6893 280.82 53.676C280.161 52.612 279.199 51.776 277.932 51.168C276.716 50.5093 275.095 50.18 273.068 50.18C270.18 50.18 268.027 50.3827 266.608 50.788C265.189 51.1933 264.151 51.5227 263.492 51.776L262.808 47.444C263.669 47.0387 264.987 46.6587 266.76 46.304C268.584 45.9493 270.763 45.772 273.296 45.772Z" fill="white"/>
<path d="M309.988 86.66C308.316 86.6093 306.847 86.3813 305.58 85.976C304.364 85.6213 303.325 85.064 302.464 84.304C301.653 83.4933 301.02 82.48 300.564 81.264C300.159 79.9973 299.956 78.4267 299.956 76.552V27.912L304.896 27V76.4C304.896 77.616 304.997 78.604 305.2 79.364C305.453 80.0733 305.808 80.656 306.264 81.112C306.72 81.5173 307.303 81.8213 308.012 82.024C308.772 82.2267 309.659 82.404 310.672 82.556L309.988 86.66Z" fill="white"/>
<path d="M324.343 85.976H319.403V46.684H324.343V85.976ZM325.483 34.828C325.483 35.9933 325.128 36.9307 324.419 37.64C323.71 38.2987 322.848 38.628 321.835 38.628C320.822 38.628 319.96 38.2987 319.251 37.64C318.542 36.9307 318.187 35.9933 318.187 34.828C318.187 33.6627 318.542 32.7507 319.251 32.092C319.96 31.3827 320.822 31.028 321.835 31.028C322.848 31.028 323.71 31.3827 324.419 32.092C325.128 32.7507 325.483 33.6627 325.483 34.828Z" fill="white"/>
<path d="M347.926 64.62C349.497 65.684 351.169 67.052 352.942 68.724C354.766 70.396 356.54 72.22 358.262 74.196C360.036 76.1213 361.682 78.1227 363.202 80.2C364.773 82.2267 366.09 84.152 367.154 85.976H361.302C360.086 83.9493 358.693 81.9733 357.122 80.048C355.602 78.072 353.981 76.2227 352.258 74.5C350.586 72.7773 348.889 71.2067 347.166 69.788C345.494 68.3693 343.898 67.1787 342.378 66.216V85.976H337.438V27.912L342.378 27V64.392C343.645 63.176 345.064 61.7827 346.634 60.212C348.205 58.6413 349.776 57.0453 351.346 55.424C352.968 53.8027 354.488 52.232 355.906 50.712C357.325 49.192 358.541 47.8493 359.554 46.684H365.482C364.317 47.9 363 49.268 361.53 50.788C360.061 52.308 358.516 53.904 356.894 55.576C355.324 57.1973 353.753 58.7933 352.182 60.364C350.612 61.9347 349.193 63.3533 347.926 64.62Z" fill="white"/>
<path d="M371.598 66.292C371.598 62.8467 372.079 59.8573 373.042 57.324C374.055 54.74 375.347 52.5867 376.918 50.864C378.539 49.1413 380.363 47.8747 382.39 47.064C384.467 46.2027 386.595 45.772 388.774 45.772C393.587 45.772 397.412 47.3427 400.25 50.484C403.138 53.6253 404.582 58.464 404.582 65C404.582 65.4053 404.556 65.8107 404.506 66.216C404.506 66.6213 404.48 67.0013 404.43 67.356H376.842C376.994 72.1693 378.184 75.868 380.414 78.452C382.643 81.036 386.19 82.328 391.054 82.328C393.739 82.328 395.867 82.0747 397.438 81.568C399.008 81.0613 400.148 80.6307 400.858 80.276L401.77 84.532C401.06 84.9373 399.718 85.4187 397.742 85.976C395.816 86.5333 393.536 86.812 390.902 86.812C387.456 86.812 384.518 86.3053 382.086 85.292C379.654 84.2787 377.652 82.86 376.082 81.036C374.511 79.212 373.371 77.0587 372.662 74.576C371.952 72.0427 371.598 69.2813 371.598 66.292ZM399.49 63.176C399.388 59.072 398.426 55.88 396.602 53.6C394.778 51.32 392.194 50.18 388.85 50.18C387.076 50.18 385.48 50.5347 384.062 51.244C382.694 51.9533 381.478 52.916 380.414 54.132C379.4 55.2973 378.59 56.6653 377.982 58.236C377.424 59.8067 377.095 61.4533 376.994 63.176H399.49Z" fill="white"/>
<path d="M414.038 109.976C413.75 108.752 413.474 107.408 413.21 105.944C412.946 104.48 412.706 102.956 412.49 101.372C412.274 99.764 412.094 98.108 411.95 96.404C411.806 94.7 411.71 92.984 411.662 91.256H415.046C415.07 92.432 415.118 93.692 415.19 95.036C415.286 96.356 415.394 97.688 415.514 99.032C415.634 100.352 415.778 101.636 415.946 102.884C416.114 104.108 416.294 105.224 416.486 106.232C417.206 105.32 417.95 104.252 418.718 103.028C419.51 101.78 420.266 100.484 420.986 99.14C421.706 97.772 422.366 96.404 422.966 95.036C423.566 93.668 424.046 92.408 424.406 91.256H427.79C427.262 92.84 426.59 94.484 425.774 96.188C424.958 97.892 424.07 99.572 423.11 101.228C422.174 102.86 421.178 104.432 420.122 105.944C419.09 107.456 418.082 108.8 417.098 109.976H414.038Z" fill="white"/>
<path d="M437.67 87.836C437.526 88.316 437.346 88.868 437.13 89.492C436.938 90.116 436.734 90.752 436.518 91.4C436.302 92.024 436.098 92.624 435.906 93.2C435.714 93.776 435.558 94.256 435.438 94.64C438.174 95 440.226 95.744 441.594 96.872C442.986 98 443.682 99.608 443.682 101.696C443.682 102.92 443.478 104.072 443.07 105.152C442.662 106.232 442.026 107.168 441.162 107.96C440.298 108.752 439.194 109.376 437.85 109.832C436.53 110.288 434.958 110.516 433.134 110.516C432.366 110.516 431.634 110.456 430.938 110.336C430.266 110.216 429.654 110.084 429.102 109.94C428.574 109.772 428.13 109.616 427.77 109.472C427.41 109.304 427.17 109.184 427.05 109.112L428.346 106.304C428.682 106.496 429.258 106.76 430.074 107.096C430.914 107.408 431.994 107.564 433.314 107.564C434.298 107.564 435.21 107.444 436.05 107.204C436.914 106.94 437.658 106.58 438.282 106.124C438.906 105.644 439.398 105.056 439.758 104.36C440.118 103.664 440.298 102.884 440.298 102.02C440.298 100.916 439.998 100.052 439.398 99.428C438.798 98.78 438.054 98.3 437.166 97.988C436.278 97.652 435.318 97.436 434.286 97.34C433.254 97.244 432.306 97.172 431.442 97.124C431.826 96.02 432.198 94.964 432.558 93.956C432.918 92.948 433.254 91.964 433.566 91.004C433.902 90.02 434.214 89.048 434.502 88.088C434.79 87.104 435.066 86.084 435.33 85.028H446.994L446.346 87.836H437.67Z" fill="white"/>
</svg>
